<svg width="48" height="48" viewBox="0 0 48 48" fill="none" xmlns="http://www.w3.org/2000/svg">
<path d="M23.9976 42.9952C34.4897 42.9952 42.9952 34.4897 42.9952 23.9976C42.9952 13.5055 34.4897 5 23.9976 5C13.5055 5 5 13.5055 5 23.9976C5 34.4897 13.5055 42.9952 23.9976 42.9952Z" stroke="#2E2E2F" stroke-width="2" stroke-miterlimit="10"/>
<path d="M19 37C19 17.8 19 13 19 13" stroke="#2E2E2F" stroke-width="2" stroke-linecap="round"/>
<path d="M16 31.0005C21.3793 31.0012 28 31 28 31" stroke="#2E2E2F" stroke-width="2" stroke-linecap="round"/>
<path d="M19 13H27C30.866 13 34 16.134 34 20C34 23.866 30.866 27 27 27H16" stroke="#2E2E2F" stroke-width="2" stroke-linecap="round"/>
</svg>
